<?xml version="1.0" encoding="utf-8"?>
<!-- Generator: Adobe Illustrator 21.1.0, SVG Export Plug-In . SVG Version: 6.00 Build 0)  -->
<svg version="1.1" id="Layer_1" xmlns="http://www.w3.org/2000/svg" xmlns:xlink="http://www.w3.org/1999/xlink" x="0px" y="0px"
	 viewBox="0 0 295.6 588" style="enable-background:new 0 0 295.6 588;" xml:space="preserve">
<style type="text/css">
	.st0{fill:#F77F8B;}
	.st1{fill:#61E2D8;}
	.st2{fill:#FFFFFF;}
</style>
<g>
	<g>
		<g>
			<polygon class="st0" points="259,225 8,222 58,98 214,98 			"/>
		</g>
		<g>
			<polygon class="st1" points="237,421 82,422 104,314 252,314 			"/>
		</g>
		<g>
			<path d="M160.9,16.4c1.6-1.6,3.9-2.4,6.2-2.3c25.4,0,50.8,0,76.3,0c2.4-0.1,4.9,0.9,6.5,2.7c2.3,2.4,2.8,6.3,1.3,9.3
				c-1.3,2.7-4.2,4.5-7.2,4.5c-23.1,0-46.2,0-69.4,0c0,14.1,0,28.3,0,42.4c18.9,0,37.7,0,56.6,0c2.8,0,5.6,1.5,7,3.9
				c1,1.7,2,3.4,2.6,5.3c7.3,24.9,14.7,49.9,22,74.8c4.8,0.2,9.7-0.1,14.5,0.2c2.5,0.6,5.3,0.8,7.3,2.6c1.9,1.6,3,4,3,6.5
				c0,14.9,0,29.8,0,44.7c0,2.3-1,4.7-2.8,6.2c-1.7,1.3-2.7,3.3-4.6,4.3c-1.3,0.7-2.8,1-4.3,1c-6.5,0-13,0-19.6,0
				C245,312.7,233.6,403,222.2,493.2c-0.3,2-0.3,4.2-1.4,6c-1.3,2.1-2.3,4.7-4.6,6c-2.4,1.6-5.4,1.1-8.2,1.2c-38.3,0-76.6,0-114.9,0
				c-5,0.3-9.8-3.9-10.2-8.9c-3.2-27.2-6.4-54.4-9.6-81.7c-0.2-3.6-1.9-6.9-1.3-10.5c-7.1-61-14.3-122-21.5-183
				c-7.2,0-14.3,0-21.5,0c-2.5,0.1-4.8-1.1-6.9-2.3c-2.6-1.5-4-4.5-3.9-7.5c0-12.5,0-25.1,0-37.6c0.1-2.1-1-4-0.9-6
				c0.1-3,2-5.8,4.7-7.1c2-1,4.3-0.8,6.5-0.8c6,0,11.9,0,17.9,0c0-1.2,0.2-2.4,0.6-3.6c6.6-20.6,13.2-41.3,19.8-61.9
				c1.9-5.5,3.2-11.2,5.7-16.5c0.9-3.5,4.4-6.1,8-6c25.9,0,51.7,0,77.6,0c0-16.1,0-32.1,0-48.2C158.1,21.8,158.6,18.5,160.9,16.4
				 M86,89.5c-7.6,23.8-15.2,47.7-22.8,71.5c6.3,0,12.6,0,18.9,0c4.4,0.1,8.1,4.1,7.9,8.4c0,4.2-3.7,8-7.9,8.1
				c-15.8,0-31.5,0-47.3,0c0,9.4,0,18.8,0,28.2c78.8,0,157.5,0,236.3,0c0-10.7-0.1-21.4,0.1-32.1c-9.4-0.2-18.9,0-28.3-0.1
				c-31.7,0-63.4,0-95,0c-2.5,0.1-5.1-1-6.7-2.9c-2.5-2.8-2.6-7.4-0.3-10.3c1.6-2.2,4.3-3.4,7-3.3c32.6,0,65.2,0,97.8,0
				c-6.7-22.5-13.3-45-20-67.5C179.1,89.5,132.5,89.5,86,89.5 M67.3,222.4c3.1,26.3,6.2,52.6,9.3,78.9c12.7,0,25.4,0,38.1,0
				c4.5-0.1,8.5,4,8.2,8.5c0,4.3-3.9,8.1-8.2,8c-12.1,0-24.1,0-36.2,0c3.2,27.3,6.4,54.6,9.6,81.9c43.1,0,86.1,0,129.2,0
				c3.5-27.9,7.1-55.9,10.6-83.8c-29.3,0-58.6,0-87.8,0c-2.3,0-4.7,0.3-6.9-0.8c-3-1.4-4.9-4.8-4.6-8.1c0.2-4.1,4-7.7,8.1-7.6
				c31.1,0,62.2,0,93.3,0c3.3-25.7,6.5-51.3,9.7-77C182.2,222.4,124.7,222.4,67.3,222.4 M90,416.3c2.9,24.5,5.8,49.1,8.6,73.6
				c35.7,0,71.5,0,107.2,0c3.1-24.5,6.2-49.1,9.3-73.6C173.5,416.3,131.7,416.3,90,416.3z"/>
			<path d="M126.6,336c3.1-1.1,6.7-0.1,8.8,2.3c4.1,4.3,8.4,8.5,12.5,12.9c3,3.1,2.8,8.6-0.4,11.5c-3,3-8.3,3.1-11.4,0.1
				c-4.2-4.2-8.3-8.6-12.5-12.8c-1.8-1.7-2.8-4.1-2.6-6.6C121.1,340.1,123.5,337.1,126.6,336z"/>
			<path d="M156.9,338.3c2.7-0.5,5.6,0.3,7.5,2.4c1.9,2,3.9,3.9,5.8,5.9c2.2,2.4,2.8,6.1,1.4,9.1c-1.8,4.1-7.1,6-11.1,4
				c-3-1.7-5-4.6-7.5-6.9c-3-2.7-3.7-7.5-1.3-10.8C152.8,340,154.8,338.7,156.9,338.3z"/>
			<path d="M154.1,364.3c2.9-1.1,6.4-0.5,8.6,1.8c1.9,1.9,4.3,3.8,4.9,6.7c1,4-1.5,8.4-5.4,9.7c-2.9,1-6.3,0.3-8.4-1.9
				c-1.9-1.9-4.3-3.8-4.8-6.6C148,370,150.3,365.7,154.1,364.3z"/>
		</g>
	</g>
	<g>
		<polygon points="246.2,574 43.3,574 49.4,536 252.3,536 		"/>
		<g>
			<path class="st2" d="M57.7,571c-2.4,0-4.6-0.4-6.8-1.2c-2.2-0.8-4.1-2-6-3.7l3.2-3.8c1.5,1.3,3,2.3,4.5,2.9c1.5,0.7,3.2,1,5.1,1
				c1.7,0,3-0.3,3.9-1c1-0.7,1.5-1.6,1.5-2.8v-0.1c0-0.6-0.1-1-0.3-1.5c-0.2-0.4-0.5-0.8-1-1.2c-0.5-0.4-1.2-0.7-2.1-1
				c-0.9-0.3-2-0.6-3.5-1c-1.6-0.4-3.1-0.8-4.3-1.3c-1.3-0.5-2.3-1.1-3.2-1.7c-0.9-0.7-1.5-1.5-2-2.5c-0.5-1-0.7-2.2-0.7-3.6v-0.1
				c0-1.3,0.3-2.5,0.8-3.6c0.5-1.1,1.2-2,2.1-2.8c0.9-0.8,2-1.4,3.3-1.8c1.3-0.4,2.7-0.7,4.2-0.7c2.2,0,4.2,0.3,6,1
				c1.8,0.7,3.5,1.6,5,2.9l-2.9,4.1c-1.4-1-2.8-1.8-4.1-2.3c-1.4-0.5-2.7-0.8-4.1-0.8c-1.6,0-2.8,0.3-3.7,1
				c-0.9,0.7-1.3,1.6-1.3,2.6v0.1c0,0.6,0.1,1.1,0.3,1.5c0.2,0.5,0.6,0.9,1.1,1.2c0.5,0.4,1.3,0.7,2.2,1c0.9,0.3,2.1,0.7,3.6,1
				c1.6,0.4,3,0.9,4.3,1.4c1.2,0.5,2.3,1.1,3.1,1.8c0.8,0.7,1.4,1.5,1.9,2.5c0.4,0.9,0.6,2,0.6,3.3v0.1c0,1.4-0.3,2.7-0.8,3.8
				c-0.5,1.1-1.3,2.1-2.2,2.9c-1,0.8-2.1,1.4-3.4,1.8C60.8,570.8,59.3,571,57.7,571z"/>
			<path class="st2" d="M74.3,547.6h5.3v3.5c0.4-0.5,0.8-1,1.2-1.5c0.4-0.5,0.9-0.9,1.5-1.3c0.6-0.4,1.2-0.7,1.9-0.9
				c0.7-0.2,1.5-0.3,2.4-0.3c1.7,0,3,0.4,4.2,1.1c1.1,0.7,2,1.7,2.6,3c0.9-1.2,2-2.2,3.3-3c1.3-0.7,2.8-1.1,4.5-1.1
				c2.5,0,4.5,0.8,5.9,2.3c1.4,1.5,2.1,3.7,2.1,6.5v14.7H104v-13c0-1.8-0.4-3.2-1.2-4.2c-0.8-1-2-1.4-3.4-1.4
				c-1.4,0-2.6,0.5-3.5,1.5c-0.9,1-1.4,2.4-1.4,4.2v13h-5.3v-13.1c0-1.8-0.4-3.2-1.2-4.1c-0.8-1-2-1.4-3.4-1.4
				c-1.5,0-2.7,0.5-3.6,1.5c-0.9,1-1.3,2.4-1.3,4.2v12.9h-5.3V547.6z"/>
			<g>
				<path class="st2" d="M126.6,571.1c-1.7,0-3.4-0.3-4.9-0.9c-1.5-0.6-2.8-1.5-3.9-2.5c-1.1-1.1-1.9-2.3-2.5-3.8
					c-0.6-1.5-0.9-3-0.9-4.6v-0.1c0-1.7,0.3-3.2,0.9-4.7c0.6-1.5,1.5-2.7,2.6-3.8c1.1-1.1,2.4-2,3.9-2.6c1.5-0.6,3.1-1,4.9-1
					c1.8,0,3.4,0.3,4.9,0.9c1.5,0.6,2.8,1.5,3.9,2.6c1.1,1.1,1.9,2.4,2.5,3.8c0.6,1.4,0.9,3,0.9,4.6v0.1c0,1.6-0.3,3.2-0.9,4.6
					c-0.6,1.5-1.5,2.7-2.6,3.8c-1.1,1.1-2.4,2-3.9,2.6C130,570.8,128.4,571.1,126.6,571.1z M126.7,566.5c1.1,0,2-0.2,2.9-0.6
					c0.9-0.4,1.6-0.9,2.2-1.6c0.6-0.7,1.1-1.4,1.4-2.3s0.5-1.8,0.5-2.8v-0.1c0-1-0.2-2-0.5-2.9c-0.3-0.9-0.8-1.7-1.5-2.4
					c-0.6-0.7-1.4-1.2-2.2-1.6c-0.9-0.4-1.8-0.6-2.8-0.6c-1,0-2,0.2-2.8,0.6c-0.9,0.4-1.6,0.9-2.2,1.6c-0.6,0.7-1.1,1.4-1.4,2.3
					c-0.3,0.9-0.5,1.8-0.5,2.8v0.1c0,1,0.2,2,0.5,2.9c0.3,0.9,0.8,1.7,1.5,2.4c0.6,0.7,1.4,1.2,2.2,1.6
					C124.8,566.3,125.7,566.5,126.7,566.5z"/>
			</g>
			<g>
				<g>
					<path class="st2" d="M155.2,571.1c-1.7,0-3.4-0.3-4.9-0.9c-1.5-0.6-2.8-1.5-3.9-2.5c-1.1-1.1-1.9-2.3-2.5-3.8
						c-0.6-1.5-0.9-3-0.9-4.6v-0.1c0-1.7,0.3-3.2,0.9-4.7c0.6-1.5,1.5-2.7,2.6-3.8c1.1-1.1,2.4-2,3.9-2.6c1.5-0.6,3.1-1,4.9-1
						c1.8,0,3.4,0.3,4.9,0.9c1.5,0.6,2.8,1.5,3.9,2.6c1.1,1.1,1.9,2.4,2.5,3.8c0.6,1.4,0.9,3,0.9,4.6v0.1c0,1.6-0.3,3.2-0.9,4.6
						c-0.6,1.5-1.5,2.7-2.6,3.8c-1.1,1.1-2.4,2-3.9,2.6C158.7,570.8,157,571.1,155.2,571.1z M155.3,566.5c1.1,0,2-0.2,2.9-0.6
						c0.9-0.4,1.6-0.9,2.2-1.6c0.6-0.7,1.1-1.4,1.4-2.3c0.3-0.9,0.5-1.8,0.5-2.8v-0.1c0-1-0.2-2-0.5-2.9c-0.3-0.9-0.8-1.7-1.5-2.4
						c-0.6-0.7-1.4-1.2-2.2-1.6c-0.9-0.4-1.8-0.6-2.8-0.6c-1,0-2,0.2-2.8,0.6c-0.9,0.4-1.6,0.9-2.2,1.6c-0.6,0.7-1.1,1.4-1.4,2.3
						c-0.3,0.9-0.5,1.8-0.5,2.8v0.1c0,1,0.2,2,0.5,2.9c0.3,0.9,0.8,1.7,1.5,2.4c0.6,0.7,1.4,1.2,2.2,1.6
						C153.4,566.3,154.3,566.5,155.3,566.5z"/>
				</g>
			</g>
			<path class="st2" d="M180.7,571c-1,0-1.8-0.1-2.7-0.3c-0.8-0.2-1.5-0.6-2.1-1.1c-0.6-0.5-1.1-1.2-1.4-2.1
				c-0.3-0.9-0.5-1.9-0.5-3.2v-12.1h-2.9v-4.5h2.9v-6.3h5.3v6.3h6.2v4.5h-6.2v11.3c0,1,0.2,1.8,0.7,2.2c0.5,0.5,1.2,0.7,2.1,0.7
				c1.1,0,2.2-0.3,3.3-0.8v4.3c-0.7,0.4-1.4,0.7-2.1,0.9C182.6,570.9,181.7,571,180.7,571z"/>
			<path class="st2" d="M190.8,538.8h5.3v12.4c0.4-0.6,0.8-1.1,1.2-1.6c0.4-0.5,1-0.9,1.6-1.3c0.6-0.4,1.2-0.7,2-0.9
				c0.7-0.2,1.5-0.3,2.4-0.3c2.6,0,4.6,0.8,6,2.4c1.4,1.6,2.1,3.7,2.1,6.5v14.6h-5.3v-13c0-1.8-0.4-3.2-1.3-4.2
				c-0.8-1-2.1-1.5-3.6-1.5c-1.5,0-2.8,0.5-3.7,1.5c-1,1-1.4,2.4-1.4,4.2v13h-5.3V538.8z"/>
			<path class="st2" d="M217.9,539h5.7v5h-5.7V539z M218.1,547.6h5.3v23h-5.3V547.6z"/>
			<path class="st2" d="M240.8,571.1c-1.7,0-3.2-0.3-4.6-0.9c-1.4-0.6-2.7-1.4-3.7-2.4c-1.1-1-1.9-2.3-2.5-3.8
				c-0.6-1.5-0.9-3.1-0.9-4.9v-0.1c0-1.7,0.3-3.2,0.8-4.7c0.6-1.5,1.3-2.7,2.3-3.8c1-1.1,2.2-1.9,3.6-2.6c1.4-0.6,2.9-0.9,4.5-0.9
				c1.8,0,3.4,0.3,4.8,1c1.4,0.7,2.5,1.6,3.4,2.7c0.9,1.1,1.6,2.4,2.1,3.9c0.5,1.5,0.7,3.1,0.7,4.7c0,0.2,0,0.5,0,0.7
				c0,0.2,0,0.5-0.1,0.8h-16.9c0.3,1.9,1,3.3,2.2,4.3c1.2,1,2.7,1.5,4.4,1.5c1.3,0,2.4-0.2,3.4-0.7c1-0.5,1.9-1.1,2.8-2l3.1,2.7
				c-1.1,1.3-2.4,2.4-3.9,3.1S243,571.1,240.8,571.1z M246.1,557.5c-0.1-0.8-0.3-1.6-0.6-2.4c-0.3-0.7-0.7-1.4-1.2-1.9
				c-0.5-0.5-1.1-1-1.8-1.3c-0.7-0.3-1.5-0.5-2.3-0.5c-1.6,0-3,0.6-4,1.7c-1.1,1.1-1.7,2.6-1.9,4.4H246.1z"/>
			<g>
				<path class="st1" d="M127.6,572.1c-1.7,0-3.4-0.3-4.9-0.9c-1.5-0.6-2.8-1.5-3.9-2.5c-1.1-1.1-1.9-2.3-2.5-3.8
					c-0.6-1.5-0.9-3-0.9-4.6v-0.1c0-1.7,0.3-3.2,0.9-4.7c0.6-1.5,1.5-2.7,2.6-3.8c1.1-1.1,2.4-2,3.9-2.6c1.5-0.6,3.1-1,4.9-1
					c1.8,0,3.4,0.3,4.9,0.9c1.5,0.6,2.8,1.5,3.9,2.6c1.1,1.1,1.9,2.4,2.5,3.8c0.6,1.4,0.9,3,0.9,4.6v0.1c0,1.6-0.3,3.2-0.9,4.6
					c-0.6,1.5-1.5,2.7-2.6,3.8c-1.1,1.1-2.4,2-3.9,2.6C131,571.8,129.4,572.1,127.6,572.1z M127.7,567.5c1.1,0,2-0.2,2.9-0.6
					c0.9-0.4,1.6-0.9,2.2-1.6c0.6-0.7,1.1-1.4,1.4-2.3s0.5-1.8,0.5-2.8v-0.1c0-1-0.2-2-0.5-2.9c-0.3-0.9-0.8-1.7-1.5-2.4
					c-0.6-0.7-1.4-1.2-2.2-1.6c-0.9-0.4-1.8-0.6-2.8-0.6c-1,0-2,0.2-2.8,0.6c-0.9,0.4-1.6,0.9-2.2,1.6c-0.6,0.7-1.1,1.4-1.4,2.3
					c-0.3,0.9-0.5,1.8-0.5,2.8v0.1c0,1,0.2,2,0.5,2.9c0.3,0.9,0.8,1.7,1.5,2.4c0.6,0.7,1.4,1.2,2.2,1.6
					C125.8,567.3,126.7,567.5,127.7,567.5z"/>
			</g>
			<g>
				<g>
					<path class="st0" d="M157.2,570.1c-1.7,0-3.4-0.3-4.9-0.9c-1.5-0.6-2.8-1.5-3.9-2.5c-1.1-1.1-1.9-2.3-2.5-3.8
						c-0.6-1.5-0.9-3-0.9-4.6v-0.1c0-1.7,0.3-3.2,0.9-4.7c0.6-1.5,1.5-2.7,2.6-3.8c1.1-1.1,2.4-2,3.9-2.6c1.5-0.6,3.1-1,4.9-1
						c1.8,0,3.4,0.3,4.9,0.9c1.5,0.6,2.8,1.5,3.9,2.6c1.1,1.1,1.9,2.4,2.5,3.8c0.6,1.4,0.9,3,0.9,4.6v0.1c0,1.6-0.3,3.2-0.9,4.6
						c-0.6,1.5-1.5,2.7-2.6,3.8c-1.1,1.1-2.4,2-3.9,2.6C160.7,569.8,159,570.1,157.2,570.1z M157.3,565.5c1.1,0,2-0.2,2.9-0.6
						c0.9-0.4,1.6-0.9,2.2-1.6c0.6-0.7,1.1-1.4,1.4-2.3c0.3-0.9,0.5-1.8,0.5-2.8v-0.1c0-1-0.2-2-0.5-2.9c-0.3-0.9-0.8-1.7-1.5-2.4
						c-0.6-0.7-1.4-1.2-2.2-1.6c-0.9-0.4-1.8-0.6-2.8-0.6c-1,0-2,0.2-2.8,0.6c-0.9,0.4-1.6,0.9-2.2,1.6c-0.6,0.7-1.1,1.4-1.4,2.3
						c-0.3,0.9-0.5,1.8-0.5,2.8v0.1c0,1,0.2,2,0.5,2.9c0.3,0.9,0.8,1.7,1.5,2.4c0.6,0.7,1.4,1.2,2.2,1.6
						C155.4,565.3,156.3,565.5,157.3,565.5z"/>
				</g>
			</g>
		</g>
	</g>
</g>
</svg>
